<?xml version="1.0" encoding="UTF-8" standalone="no"?>
<svg
   xmlns:dc="http://purl.org/dc/elements/1.1/"
   xmlns:cc="http://creativecommons.org/ns#"
   xmlns:rdf="http://www.w3.org/1999/02/22-rdf-syntax-ns#"
   xmlns:svg="http://www.w3.org/2000/svg"
   xmlns="http://www.w3.org/2000/svg"
   xmlns:sodipodi="http://sodipodi.sourceforge.net/DTD/sodipodi-0.dtd"
   xmlns:inkscape="http://www.inkscape.org/namespaces/inkscape"
   version="1.1"
   id="svg2"
   xml:space="preserve"
   width="475.35999"
   height="59.919998"
   viewBox="0 0 475.35999 59.919998"
   sodipodi:docname="zircon-typo.eps"><metadata
     id="metadata8"><rdf:RDF><cc:Work
         rdf:about=""><dc:format>image/svg+xml</dc:format><dc:type
           rdf:resource="http://purl.org/dc/dcmitype/StillImage" /></cc:Work></rdf:RDF></metadata><defs
     id="defs6" /><sodipodi:namedview
     pagecolor="#ffffff"
     bordercolor="#666666"
     borderopacity="1"
     objecttolerance="10"
     gridtolerance="10"
     guidetolerance="10"
     inkscape:pageopacity="0"
     inkscape:pageshadow="2"
     inkscape:window-width="640"
     inkscape:window-height="480"
     id="namedview4" /><g
     id="g10"
     inkscape:groupmode="layer"
     inkscape:label="ink_ext_XXXXXX"
     transform="matrix(1.3333333,0,0,-1.3333333,0,59.92)"><g
       id="g12"
       transform="scale(0.1)"><path
         d="M 0,4.79688 V 68.9961 L 219.605,343.195 H 7.20313 v 81.004 H 347.402 v -64.804 l -219,-272.9966 H 351 V 4.79688 H 0"
         style="fill:#ffffff;fill-opacity:1;fill-rule:nonzero;stroke:none"
         id="path14" /><path
         d="m 400.801,424.199 h 93.597 V 4.79688 H 400.801 V 424.199"
         style="fill:#ffffff;fill-opacity:1;fill-rule:nonzero;stroke:none"
         id="path16" /><path
         d="m 793.191,235.195 c 11.598,10.391 17.407,26.895 17.407,49.504 0,22.586 -6.004,38.094 -18.004,46.492 -11.996,8.399 -33,12.598 -63,12.598 H 659.395 V 219.59 h 68.398 c 31.996,0 53.793,5.195 65.398,15.605 z M 905.996,285 c 0,-67.207 -26.605,-110.605 -79.801,-130.203 L 932.395,4.79688 H 817.191 L 724.195,138.594 h -64.8 V 4.79688 H 565.797 V 424.199 h 159 c 65.191,0 111.691,-11.015 139.496,-33.008 27.797,-22 41.703,-57.402 41.703,-106.191"
         style="fill:#ffffff;fill-opacity:1;fill-rule:nonzero;stroke:none"
         id="path18" /><path
         d="m 1162.79,87.5977 c 45.99,0 83.6,18.1913 112.8,54.6013 l 60,-61.8084 C 1287.98,26.7891 1231.88,0 1167.29,0 c -64.6,0 -117.81,20.3906 -159.6,61.1914 -41.807,40.8006 -62.702,92.3046 -62.702,154.5036 0,62.196 21.301,114.09 63.902,155.703 42.6,41.59 94.69,62.391 156.3,62.391 68.79,0 126.39,-26.191 172.8,-78.594 l -58.2,-65.996 c -29.61,36.797 -66.41,55.196 -110.4,55.196 -35.21,0 -65.31,-11.504 -90.3,-34.5 -25,-23 -37.5,-53.997 -37.5,-93 0,-39.004 11.79,-70.301 35.4,-93.907 23.6,-23.5935 52.2,-35.3903 85.8,-35.3903"
         style="fill:#ffffff;fill-opacity:1;fill-rule:nonzero;stroke:none"
         id="path20" /><path
         d="m 1689.58,216.895 c 0,37.402 -11.99,69.296 -35.99,95.703 -24.01,26.398 -53.51,39.601 -88.5,39.601 -35.01,0 -64.5,-13.203 -88.5,-39.601 -24,-26.407 -36,-58.301 -36,-95.703 0,-37.403 12,-69.2 36,-95.399 24,-26.203 53.49,-39.2968 88.5,-39.2968 34.99,0 64.49,13.0938 88.5,39.2968 24,26.199 35.99,57.996 35.99,95.399 z m 31.81,-154.1997 c -42.41,-41.4062 -94.61,-62.097644 -156.6,-62.097644 -62.01,0 -114.21,20.691444 -156.6,62.097644 -42.4,41.4067 -63.61,92.8907 -63.61,154.5037 0,61.59 21.21,113.094 63.61,154.5 42.39,41.399 94.59,62.09 156.6,62.09 61.99,0 114.19,-20.691 156.6,-62.09 42.39,-41.406 63.6,-92.91 63.6,-154.5 0,-61.613 -21.21,-113.097 -63.6,-154.5037"
         style="fill:#ffffff;fill-opacity:1;fill-rule:nonzero;stroke:none"
         id="path22" /><path
         d="m 2125.8,424.199 h 93.59 V 4.79688 H 2125.8 L 1925.99,267.598 V 4.79688 H 1832.4 V 424.199 h 87.6 l 205.8,-270 v 270"
         style="fill:#ffffff;fill-opacity:1;fill-rule:nonzero;stroke:none"
         id="path24" /><path
         d="M 2455.78,359.395 V 4.79688 h -70.8 V 359.395 h -127.21 v 64.804 h 325.21 v -64.804 h -127.2"
         style="fill:#237bc8;fill-opacity:1;fill-rule:nonzero;stroke:none"
         id="path26" /><path
         d="m 2665.17,187.793 h 182.99 c 0,26.797 -8.4,47.402 -25.2,61.797 -16.79,14.406 -37.5,21.601 -62.09,21.601 -24.61,0 -46.71,-7.5 -66.3,-22.5 -19.61,-15 -29.4,-35.3 -29.4,-60.898 z M 2915.37,135 h -250.2 c 1.58,-23.203 12.19,-41.9141 31.8,-56.1016 19.59,-14.2109 41.99,-21.3007 67.2,-21.3007 39.99,0 70.4,12.5976 91.2,37.7929 l 38.39,-41.9922 C 2859.37,17.793 2814.57,0 2759.37,0 c -44.8,0 -82.91,14.8945 -114.3,44.6992 -31.4,29.793 -47.11,69.7928 -47.11,119.9998 0,50.184 16,90.086 48.01,119.696 31.99,29.601 69.69,44.394 113.11,44.394 43.38,0 80.29,-13.105 110.68,-39.297 30.41,-26.199 45.61,-62.304 45.61,-108.301 V 135"
         style="fill:#237bc8;fill-opacity:1;fill-rule:nonzero;stroke:none"
         id="path28" /><path
         d="m 3098.96,0 c -44.39,0 -82.6,15.0898 -114.59,45.293 -32.01,30.1953 -48.01,69.699 -48.01,118.496 0,48.809 16.7,88.508 50.1,119.102 33.4,30.605 74.1,45.898 122.11,45.898 48.01,0 88.59,-16.601 121.8,-49.793 l -39.59,-48.605 c -27.6,24.004 -55.41,36.007 -83.4,36.007 -28.01,0 -52.31,-9.308 -72.91,-27.902 -20.61,-18.601 -30.9,-42.598 -30.9,-72 0,-29.406 10.19,-54.297 30.6,-74.6991 20.4,-20.3985 45.49,-30.6055 75.3,-30.6055 29.8,0 57.91,13.5938 84.29,40.8006 l 39.61,-43.2029 C 3194.57,19.5898 3149.76,0 3098.96,0"
         style="fill:#237bc8;fill-opacity:1;fill-rule:nonzero;stroke:none"
         id="path30" /><path
         d="M 3338.35,177.598 V 4.79688 h -67.18 V 449.395 h 67.18 V 265.801 c 9.61,19.59 24.11,34.988 43.5,46.191 19.41,11.192 40.29,16.797 62.72,16.797 35.99,0 65.09,-10.996 87.28,-32.988 22.21,-22.012 33.3,-53.809 33.3,-95.41 V 4.79688 h -67.19 V 180 c 0,58.789 -24.41,88.195 -73.2,88.195 -23.2,0 -43.42,-7.707 -60.6,-23.097 -17.21,-15.41 -25.81,-37.91 -25.81,-67.5"
         style="fill:#237bc8;fill-opacity:1;fill-rule:nonzero;stroke:none"
         id="path32" /></g></g></svg>
